<?xml version="1.0" encoding="utf-8"?>
<svg xmlns="http://www.w3.org/2000/svg" height="48" width="48" viewBox="0 0 48 48">
  <g>
    <rect height="48" width="48" fill="#000000" />
    <path id="path1" transform="rotate(0,24,24) translate(11,13.0320591964792) scale(0.812500096857559,0.812500096857559)  " fill="#FFFFFF" d="M5.5000117,21.997993L26.498025,21.997993C27.051024,21.997993 27.498025,22.444993 27.498025,22.997993 27.498025,23.550992 27.051024,23.997993 26.498025,23.997993L5.5000117,23.997993C4.9470113,23.997993 4.5000112,23.550992 4.5000112,22.997993 4.5000112,22.444993 4.9470113,21.997993 5.5000117,21.997993z M8.4990642,18.991L23.498044,18.991C24.051043,18.991 24.498042,19.438 24.498042,19.991 24.498042,20.544 24.051043,20.991 23.498044,20.991L8.4990642,20.991C7.9470651,20.991 7.4990657,20.544 7.4990657,19.991 7.4990657,19.438 7.9470651,18.991 8.4990642,18.991z M28.461213,17.970011L28.449189,17.999003 3.5473075,17.999003 2.0072739,24.968999 29.977198,24.998006z M5.0000503,2C4.4480512,2,4.0000518,2.447999,4.0000518,2.999999L4.0000518,14.998994C4.0000518,15.550993,4.4480512,15.998993,5.0000503,15.998993L26.998013,15.998993C27.550013,15.998993,27.998011,15.550993,27.998011,14.998994L27.998011,2.999999C27.998011,2.447999,27.550013,2,26.998013,2z M5.0000503,0L26.998013,0C28.652011,0,29.998008,1.3459997,29.998008,2.999999L29.998008,14.998994C29.998008,15.464181,29.891537,15.905005,29.70169,16.298373L29.652552,16.394168 29.690205,16.42088C30.035456,16.687507,30.293208,17.065509,30.406215,17.511011L31.942157,24.543004C32.087176,25.106999 31.957171,25.73 31.578206,26.218006 31.19216,26.714008 30.609216,26.998004 29.977198,26.998004L2.0192979,26.998004C1.3872813,26.998004 0.80427572,26.714008 0.418291,26.218006 0.039325023,25.73 -0.089702809,25.106999 0.062274436,24.509007L1.5822881,17.544016C1.6992919,17.082011,1.9590413,16.695758,2.3052922,16.425006L2.3462482,16.395606 2.2963743,16.298373C2.1065259,15.905005,2.0000553,15.464181,2.0000556,14.998994L2.0000556,2.999999C2.0000553,1.3459997,3.3460532,0,5.0000503,0z" />
  </g>
</svg>

