<?xml version="1.0" encoding="utf-8"?>
<svg xmlns="http://www.w3.org/2000/svg" height="48" width="48" viewBox="0 0 48 48">
  <g>
    <rect height="48" width="48" fill="#000000" />
    <path id="path1" transform="rotate(0,24,24) translate(11,16.722030878067) scale(0.8125,0.8125)  " fill="#FFFFFF" d="M21.7,10.699813L17.2,16.799706 17,16.999703C16.5,17.599692 15.8,17.999685 15,17.899687 13.8,17.699691 12.9,16.59971 13.099999,15.399731 13.2,14.599745 13.7,13.999755 14.4,13.69976z M16,0C24.8,4.7683716E-07,32,7.1998746,32,15.999721L26.9,15.999721C25.7,9.4998343 20.8,4.59992 13.9,4.59992 7,4.59992 1.2999992,9.4998343 0.10000038,15.999721L0,15.999721C0,7.1998746,7.2000008,4.7683716E-07,16,0z" />
  </g>
</svg>

